<svg width="125" height="20" viewBox="0 0 175 30" xmlns="http://www.w3.org/2000/svg"><title>E279B0F2-66BC-477D-B326-C4285CA1BC92</title><g fill="none" fill-rule="evenodd"><path d="M173.85 17.28v12.201c-6.713 0-12.2-5.43-12.2-12.201h12.2z" fill="#ADBC72"/><path d="M12.201 17.28h12.201c0-6.714-5.429-12.201-12.2-12.201C5.487 5.079 0 10.566 0 17.28h12.201z" fill="#A686AA"/><path d="M141.392 17.28h12.202c0-6.714-5.43-12.201-12.202-12.201-6.713 0-12.2 5.487-12.2 12.201h12.2z" fill="#A5C3D2"/><path d="M109.401 17.28h12.201c0-6.714-5.487-12.201-12.2-12.201-6.773 0-12.202 5.487-12.202 12.201h12.201z" fill="#F58345"/><path d="M44.368 17.28h12.2c0 6.772-5.487 12.201-12.2 12.201A12.159 12.159 0 0 1 32.166 17.28h12.202z" fill="#3C8476"/><path d="M77.001 17.28v12.201c-6.713 0-12.143-5.43-12.143-12.201h12.143z" fill="#D2AB67"/><path d="M64.858 17.28V0h8.407v6.246h3.911v6.13h-3.911v4.904h-8.407zM32.108 6.246h8.523V17.28h-8.523zm15.937 0h8.523V17.28h-8.523zm65.034 11.034h8.523v11.034h-8.523zm-15.937 0h8.523v11.034h-8.523zm56.043 3.62c-1.518 5.837-6.188 8.464-11.793 8.581-6.304.058-12.142-4.612-12.2-12.201h7.413c.059 3.386 2.102 6.013 5.138 6.013 2.101 0 3.794-1.05 4.086-2.394h7.356zM15.937 17.28h8.523v11.034h-8.523zM0 17.28h8.523v11.034H0zm161.65 0V0h8.465v6.246h3.91v6.13h-3.91v4.904z" fill="#FFF"/></g></svg>